<svg width="44" height="44" viewBox="0 0 44 44" fill="none" xmlns="http://www.w3.org/2000/svg">
<path d="M34.4828 16.5385C33.6551 16.5385 32.5586 16.5202 31.1935 16.5202C27.8643 16.5202 25.1269 13.7647 25.1269 10.4042V4.50816C25.1269 4.04432 24.7565 3.66666 24.2973 3.66666H14.6C10.0745 3.66666 6.41669 7.38099 6.41669 11.9332V31.6873C6.41669 36.4632 10.2488 40.3333 14.9776 40.3333H29.4182C33.9274 40.3333 37.5834 36.6428 37.5834 32.087V17.3635C37.5834 16.8978 37.2149 16.522 36.7538 16.5238C35.9786 16.5293 35.0492 16.5385 34.4828 16.5385Z" fill="#130F26"/>
<path d="M29.4873 4.70669C28.9392 4.13653 27.9822 4.52886 27.9822 5.31903V10.1535C27.9822 12.1812 29.6523 13.8495 31.68 13.8495C32.9578 13.8642 34.7325 13.8679 36.2395 13.8642C37.0113 13.8624 37.4037 12.9402 36.8683 12.3829C34.9342 10.3717 31.471 6.76736 29.4873 4.70669Z" fill="#130F26"/>
<path fill-rule="evenodd" clip-rule="evenodd" d="M16.4522 20.8773H22.658C23.4115 20.8773 24.0239 20.2668 24.0239 19.5133C24.0239 18.7598 23.4115 18.1474 22.658 18.1474H16.4522C15.6987 18.1474 15.0882 18.7598 15.0882 19.5133C15.0882 20.2668 15.6987 20.8773 16.4522 20.8773ZM16.4524 30.0333H26.433C27.1865 30.0333 27.7989 29.4228 27.7989 28.6693C27.7989 27.9158 27.1865 27.3035 26.433 27.3035H16.4524C15.6989 27.3035 15.0884 27.9158 15.0884 28.6693C15.0884 29.4228 15.6989 30.0333 16.4524 30.0333Z" fill="#8DDFBB"/>
</svg>
