<svg width="38" height="34" viewBox="0 0 38 34" fill="none" xmlns="http://www.w3.org/2000/svg">
<path fill-rule="evenodd" clip-rule="evenodd" d="M28.9733 6.43341C29.0466 6.5616 29.175 6.65316 29.34 6.65316C33.74 6.65316 37.3333 10.2425 37.3333 14.6376V25.5155C37.3333 29.9107 33.74 33.5 29.34 33.5H8.65996C4.24163 33.5 0.666626 29.9107 0.666626 25.5155V14.6376C0.666626 10.2425 4.24163 6.65316 8.65996 6.65316C8.80663 6.65316 8.95329 6.57991 9.00829 6.43341L9.11829 6.21365C9.18149 6.08063 9.24635 5.94401 9.3122 5.80531C9.78121 4.81741 10.3001 3.72447 10.6216 3.08213C11.465 1.43396 12.895 0.518313 14.6733 0.5H23.3083C25.0866 0.518313 26.535 1.43396 27.3783 3.08213C27.667 3.65898 28.107 4.58816 28.531 5.48374C28.6185 5.66856 28.7053 5.85195 28.79 6.03052L28.9733 6.43341ZM27.635 13.4656C27.635 14.3812 28.3683 15.1138 29.285 15.1138C30.2016 15.1138 30.9533 14.3812 30.9533 13.4656C30.9533 12.5499 30.2016 11.7991 29.285 11.7991C28.3683 11.7991 27.635 12.5499 27.635 13.4656ZM15.8283 16.3041C16.69 15.4434 17.8083 14.9856 19 14.9856C20.1916 14.9856 21.31 15.4434 22.1533 16.2858C22.9966 17.1282 23.455 18.2453 23.455 19.4356C23.4366 21.8896 21.4566 23.8857 19 23.8857C17.8083 23.8857 16.69 23.4279 15.8466 22.5855C15.0033 21.7431 14.545 20.626 14.545 19.4356V19.4173C14.5266 18.2636 14.985 17.1465 15.8283 16.3041ZM24.0783 24.5266C22.7766 25.8269 20.98 26.6326 19 26.6326C17.075 26.6326 15.2783 25.8818 13.9033 24.5266C12.5466 23.1532 11.795 21.3585 11.795 19.4356C11.7766 17.5311 12.5283 15.7364 13.885 14.3629C15.26 12.9895 17.075 12.2386 19 12.2386C20.925 12.2386 22.74 12.9895 24.0966 14.3446C25.4533 15.7181 26.205 17.5311 26.205 19.4356C26.1866 21.4317 25.38 23.2264 24.0783 24.5266Z" fill="#130F26"/>
</svg>
