<svg width="132" height="32" viewBox="0 0 132 32" fill="none" xmlns="http://www.w3.org/2000/svg">
<path d="M0.308228 6.54343C0.308228 2.92959 3.23782 0 6.85166 0H25.2922C28.9061 0 31.8357 2.92959 31.8357 6.54343V24.984C31.8357 28.5979 28.9061 31.5274 25.2922 31.5274H6.85166C3.23782 31.5274 0.308228 28.5979 0.308228 24.984V6.54343Z" fill="#8DDFBB"/>
<path d="M15.2679 17.216C13.4114 16.6471 12.0654 15.9573 11.23 15.1467C10.41 14.336 10 13.3547 10 12.2027C10 10.9084 10.4719 9.88444 11.4156 9.13067C12.3594 8.37689 13.6821 8 15.384 8C16.8228 8 18.0759 8.14933 19.1435 8.448C19.5148 8.54756 19.8087 8.75378 20.0253 9.06667C20.2574 9.36533 20.3734 9.69956 20.3734 10.0693V10.2613C20.3734 10.5316 20.2419 10.7449 19.9789 10.9013C19.7159 11.0436 19.4451 11.0649 19.1667 10.9653C18.0063 10.5529 16.8228 10.3467 15.616 10.3467C14.8425 10.3467 14.2546 10.5102 13.8523 10.8373C13.4501 11.1644 13.2489 11.6196 13.2489 12.2027C13.2489 13.2267 13.9761 13.9591 15.4304 14.4C17.519 15.0116 18.9655 15.7084 19.77 16.4907C20.59 17.2729 21 18.2827 21 19.52C21 22.5067 18.9965 24 14.9895 24C13.7363 24 12.5992 23.8222 11.5781 23.4667C11.2068 23.3387 10.9128 23.1182 10.6962 22.8053C10.4951 22.4924 10.3945 22.144 10.3945 21.76V21.504C10.3945 21.2338 10.5183 21.0418 10.7658 20.928C11.0134 20.8 11.2686 20.7929 11.5316 20.9067C12.5527 21.376 13.628 21.6107 14.7574 21.6107C16.7222 21.6107 17.7046 20.928 17.7046 19.5627C17.7046 19.008 17.519 18.5529 17.1477 18.1973C16.7764 17.8276 16.1498 17.5004 15.2679 17.216Z" fill="#212121"/>
<path d="M26.6922 0.000366211H24.6351C24.0927 0.000366211 23.6523 0.409744 23.6523 0.915164C23.6523 1.41938 24.0927 1.82756 24.6351 1.82756H26.6922C28.4446 1.82756 29.8703 3.15294 29.8703 4.78204V7.05463C29.8703 7.55885 30.3106 7.96943 30.853 7.96943C31.3967 7.96943 31.8357 7.55885 31.8357 7.05463V4.78204C31.8357 2.1445 29.5293 0.000366211 26.6922 0.000366211Z" fill="#212121"/>
<path d="M8.21954 0.914797C8.21954 0.409378 7.77919 0 7.23681 0H7.23552L5.13189 0.00120052C2.3025 0.00360156 0 2.14653 0 4.77808V7.05426C0 7.55848 0.440356 7.96906 0.982729 7.96906C1.5251 7.96906 1.96675 7.55848 1.96675 7.05426V4.77808C1.96675 3.15377 3.38725 1.832 5.13318 1.82959L7.23681 1.82839C7.78048 1.82839 8.21954 1.41902 8.21954 0.914797Z" fill="#212121"/>
<path d="M5.1436 31.9997L7.20074 31.9997C7.74312 31.9997 8.18347 31.5903 8.18347 31.0849C8.18347 30.5806 7.74312 30.1725 7.20074 30.1725L5.1436 30.1725C3.39121 30.1725 1.96555 28.8471 1.96555 27.218L1.96555 24.9454C1.96555 24.4412 1.52519 24.0306 0.982818 24.0306C0.439153 24.0306 8.93887e-05 24.4412 8.93422e-05 24.9454L8.91326e-05 27.218C8.88894e-05 29.8555 2.30647 31.9997 5.1436 31.9997Z" fill="#212121"/>
<path d="M23.6163 31.0852C23.6163 31.5906 24.0566 32 24.599 32L24.6003 32L26.7039 31.9988C29.5333 31.9964 31.8358 29.8535 31.8358 27.2219L31.8358 24.9457C31.8358 24.4415 31.3955 24.0309 30.8531 24.0309C30.3107 24.0309 29.8691 24.4415 29.8691 24.9457L29.8691 27.2219C29.8691 28.8462 28.4486 30.168 26.7026 30.1704L24.599 30.1716C24.0553 30.1716 23.6163 30.581 23.6163 31.0852Z" fill="#212121"/>
<path d="M49.9347 17.172C48.4209 16.6675 47.3235 16.0556 46.6423 15.3366C45.9737 14.6176 45.6394 13.7472 45.6394 12.7254C45.6394 11.5774 46.0242 10.6692 46.7936 10.0006C47.5631 9.33204 48.6417 8.99775 50.0293 8.99775C51.2025 8.99775 52.2242 9.13021 53.0947 9.39511C53.3974 9.48342 53.6371 9.66633 53.8137 9.94385C54.0029 10.2088 54.0975 10.5052 54.0975 10.8332V11.0035C54.0975 11.2432 53.9903 11.4324 53.7758 11.5711C53.5614 11.6973 53.3406 11.7162 53.1136 11.6279C52.1675 11.2621 51.2025 11.0792 50.2185 11.0792C49.5878 11.0792 49.1084 11.2242 48.7805 11.5144C48.4525 11.8045 48.2885 12.2082 48.2885 12.7254C48.2885 13.6336 48.8814 14.2833 50.0671 14.6743C51.7701 15.2168 52.9496 15.8349 53.6056 16.5287C54.2741 17.2225 54.6084 18.1181 54.6084 19.2156C54.6084 21.8647 52.9748 23.1892 49.7076 23.1892C48.6858 23.1892 47.7587 23.0315 46.9261 22.7162C46.6233 22.6026 46.3837 22.4071 46.2071 22.1296C46.0431 21.8521 45.9611 21.543 45.9611 21.2024V20.9754C45.9611 20.7357 46.062 20.5654 46.2638 20.4645C46.4657 20.3509 46.6738 20.3446 46.8883 20.4455C47.7208 20.8618 48.5975 21.07 49.5184 21.07C51.1205 21.07 51.9215 20.4645 51.9215 19.2535C51.9215 18.7615 51.7701 18.3578 51.4674 18.0425C51.1646 17.7145 50.6537 17.4243 49.9347 17.172Z" fill="#212121"/>
<path d="M58.1096 23C57.8194 23 57.5671 22.8928 57.3527 22.6783C57.1382 22.4639 57.031 22.2116 57.031 21.9215V9.88709C57.031 9.59695 57.1382 9.34466 57.3527 9.13021C57.5671 8.91576 57.8194 8.80853 58.1096 8.80853H58.488C58.7781 8.80853 59.0304 8.91576 59.2449 9.13021C59.4593 9.34466 59.5666 9.59695 59.5666 9.88709V17.172C59.5666 17.1847 59.5729 17.191 59.5855 17.191H59.6044L62.4805 13.9553C62.9473 13.4255 63.5402 13.1606 64.2592 13.1606H65.0539C65.2558 13.1606 65.3945 13.2552 65.4702 13.4444C65.5585 13.6336 65.5333 13.8039 65.3945 13.9553L61.9318 17.7775C61.8687 17.8532 61.8687 17.9352 61.9318 18.0235L65.4324 22.1864C65.5711 22.3504 65.5901 22.527 65.4891 22.7162C65.4008 22.9054 65.2558 23 65.0539 23H64.2592C63.5402 23 62.9536 22.7225 62.4995 22.1674L59.6044 18.6669C59.6044 18.6543 59.5981 18.648 59.5855 18.648C59.5729 18.648 59.5666 18.6543 59.5666 18.6669V21.9215C59.5666 22.2116 59.4593 22.4639 59.2449 22.6783C59.0304 22.8928 58.7781 23 58.488 23H58.1096Z" fill="#212121"/>
<path d="M69.2447 23C68.9546 23 68.7023 22.8928 68.4878 22.6783C68.2734 22.4639 68.1661 22.2116 68.1661 21.9215V14.2391C68.1661 13.949 68.2734 13.6967 68.4878 13.4823C68.7023 13.2678 68.9546 13.1606 69.2447 13.1606H69.7367C70.0268 13.1606 70.2791 13.2678 70.4936 13.4823C70.708 13.6967 70.8152 13.949 70.8152 14.2391V21.9215C70.8152 22.2116 70.708 22.4639 70.4936 22.6783C70.2791 22.8928 70.0268 23 69.7367 23H69.2447ZM69.2447 11.0792C68.9546 11.0792 68.7023 10.9719 68.4878 10.7575C68.2734 10.543 68.1661 10.2908 68.1661 10.0006V9.88709C68.1661 9.59695 68.2734 9.34466 68.4878 9.13021C68.7023 8.91576 68.9546 8.80853 69.2447 8.80853H69.7367C70.0268 8.80853 70.2791 8.91576 70.4936 9.13021C70.708 9.34466 70.8152 9.59695 70.8152 9.88709V10.0006C70.8152 10.2908 70.708 10.543 70.4936 10.7575C70.2791 10.9719 70.0268 11.0792 69.7367 11.0792H69.2447Z" fill="#212121"/>
<path d="M75.0517 23C74.7615 23 74.5092 22.8928 74.2948 22.6783C74.093 22.4639 73.992 22.2116 73.992 21.9215V14.2391C73.992 13.949 74.093 13.6967 74.2948 13.4823C74.5092 13.2678 74.7615 13.1606 75.0517 13.1606H75.3166C75.6067 13.1606 75.8527 13.2615 76.0545 13.4633C76.269 13.6652 76.3825 13.9112 76.3951 14.2013V14.3337C76.3951 14.3464 76.4014 14.3527 76.4141 14.3527C76.4393 14.3527 76.4519 14.3464 76.4519 14.3337C77.1962 13.4255 78.035 12.9714 78.9685 12.9714C79.5362 12.9714 79.9903 13.0786 80.3309 13.293C80.6841 13.5075 80.9932 13.8859 81.2581 14.4284C81.2581 14.441 81.2707 14.4473 81.2959 14.4473C81.3085 14.4473 81.3212 14.441 81.3338 14.4284C82.1285 13.457 83.0241 12.9714 84.0207 12.9714C85.0677 12.9714 85.8183 13.2552 86.2724 13.8229C86.7391 14.3905 86.9725 15.3681 86.9725 16.7558V21.9215C86.9725 22.2116 86.8653 22.4639 86.6508 22.6783C86.449 22.8928 86.203 23 85.9129 23H85.5912C85.3011 23 85.0488 22.8928 84.8343 22.6783C84.6199 22.4639 84.5127 22.2116 84.5127 21.9215V17.1342C84.5127 16.2133 84.4244 15.6078 84.2477 15.3177C84.0711 15.0276 83.7305 14.8825 83.226 14.8825C82.898 14.8825 82.57 15.0339 82.242 15.3366C81.914 15.6394 81.75 15.9421 81.75 16.2449V21.9215C81.75 22.2116 81.6428 22.4639 81.4284 22.6783C81.2139 22.8928 80.9616 23 80.6715 23H80.3498C80.0597 23 79.8074 22.8928 79.5929 22.6783C79.3911 22.4639 79.2902 22.2116 79.2902 21.9215V17.1342C79.2902 16.2259 79.1956 15.6267 79.0064 15.3366C78.8298 15.0339 78.4892 14.8825 77.9846 14.8825C77.6566 14.8825 77.3286 15.0339 77.0006 15.3366C76.6727 15.6394 76.5087 15.9421 76.5087 16.2449V21.9215C76.5087 22.2116 76.4014 22.4639 76.187 22.6783C75.9725 22.8928 75.7202 23 75.4301 23H75.0517Z" fill="#212121"/>
<path d="M90.5551 23C90.265 23 90.0127 22.8928 89.7982 22.6783C89.5964 22.4639 89.4955 22.2116 89.4955 21.9215V14.2391C89.4955 13.949 89.5964 13.6967 89.7982 13.4823C90.0127 13.2678 90.265 13.1606 90.5551 13.1606H90.82C91.1102 13.1606 91.3561 13.2615 91.558 13.4633C91.7724 13.6652 91.886 13.9112 91.8986 14.2013V14.3337C91.8986 14.3464 91.9049 14.3527 91.9175 14.3527C91.9427 14.3527 91.9553 14.3464 91.9553 14.3337C92.6996 13.4255 93.5385 12.9714 94.472 12.9714C95.0396 12.9714 95.4938 13.0786 95.8343 13.293C96.1876 13.5075 96.4966 13.8859 96.7615 14.4284C96.7615 14.441 96.7741 14.4473 96.7994 14.4473C96.812 14.4473 96.8246 14.441 96.8372 14.4284C97.6319 13.457 98.5276 12.9714 99.5241 12.9714C100.571 12.9714 101.322 13.2552 101.776 13.8229C102.243 14.3905 102.476 15.3681 102.476 16.7558V21.9215C102.476 22.2116 102.369 22.4639 102.154 22.6783C101.952 22.8928 101.706 23 101.416 23H101.095C100.805 23 100.552 22.8928 100.338 22.6783C100.123 22.4639 100.016 22.2116 100.016 21.9215V17.1342C100.016 16.2133 99.9278 15.6078 99.7512 15.3177C99.5746 15.0276 99.234 14.8825 98.7294 14.8825C98.4014 14.8825 98.0734 15.0339 97.7455 15.3366C97.4175 15.6394 97.2535 15.9421 97.2535 16.2449V21.9215C97.2535 22.2116 97.1463 22.4639 96.9318 22.6783C96.7174 22.8928 96.4651 23 96.1749 23H95.8533C95.5631 23 95.3108 22.8928 95.0964 22.6783C94.8946 22.4639 94.7936 22.2116 94.7936 21.9215V17.1342C94.7936 16.2259 94.699 15.6267 94.5098 15.3366C94.3332 15.0339 93.9926 14.8825 93.488 14.8825C93.16 14.8825 92.8321 15.0339 92.5041 15.3366C92.1761 15.6394 92.0121 15.9421 92.0121 16.2449V21.9215C92.0121 22.2116 91.9049 22.4639 91.6904 22.6783C91.476 22.8928 91.2237 23 90.9336 23H90.5551Z" fill="#212121"/>
<path d="M106.645 23C106.355 23 106.103 22.8928 105.888 22.6783C105.674 22.4639 105.567 22.2116 105.567 21.9215V14.2391C105.567 13.949 105.674 13.6967 105.888 13.4823C106.103 13.2678 106.355 13.1606 106.645 13.1606H107.137C107.427 13.1606 107.68 13.2678 107.894 13.4823C108.108 13.6967 108.216 13.949 108.216 14.2391V21.9215C108.216 22.2116 108.108 22.4639 107.894 22.6783C107.68 22.8928 107.427 23 107.137 23H106.645ZM106.645 11.0792C106.355 11.0792 106.103 10.9719 105.888 10.7575C105.674 10.543 105.567 10.2908 105.567 10.0006V9.88709C105.567 9.59695 105.674 9.34466 105.888 9.13021C106.103 8.91576 106.355 8.80853 106.645 8.80853H107.137C107.427 8.80853 107.68 8.91576 107.894 9.13021C108.108 9.34466 108.216 9.59695 108.216 9.88709V10.0006C108.216 10.2908 108.108 10.543 107.894 10.7575C107.68 10.9719 107.427 11.0792 107.137 11.0792H106.645Z" fill="#212121"/>
<path d="M112.471 23C112.181 23 111.929 22.8928 111.714 22.6783C111.5 22.4639 111.392 22.2116 111.392 21.9215V14.2391C111.392 13.949 111.5 13.6967 111.714 13.4823C111.929 13.2678 112.181 13.1606 112.471 13.1606H112.717C113.02 13.1606 113.272 13.2678 113.474 13.4823C113.688 13.6841 113.802 13.9364 113.814 14.2391V14.3716C113.814 14.3842 113.821 14.3905 113.833 14.3905C113.846 14.3905 113.859 14.3842 113.871 14.3716C114.729 13.4381 115.732 12.9714 116.88 12.9714C118.028 12.9714 118.86 13.2993 119.378 13.9553C119.907 14.5987 120.172 15.6772 120.172 17.191V21.9215C120.172 22.2116 120.065 22.4639 119.851 22.6783C119.636 22.8928 119.384 23 119.094 23H118.772C118.482 23 118.23 22.8928 118.015 22.6783C117.813 22.4639 117.712 22.2116 117.712 21.9215V17.3802C117.712 16.4341 117.586 15.7907 117.334 15.4501C117.094 15.0969 116.659 14.9203 116.028 14.9203C115.511 14.9203 115.032 15.1411 114.59 15.5826C114.149 16.0241 113.928 16.4972 113.928 17.0017V21.9215C113.928 22.2116 113.821 22.4639 113.606 22.6783C113.392 22.8928 113.14 23 112.849 23H112.471Z" fill="#212121"/>
<path d="M126.789 14.8636C125.338 14.8636 124.613 15.9358 124.613 18.0803C124.613 19.1525 124.808 19.9599 125.199 20.5023C125.591 21.0321 126.12 21.297 126.789 21.297C127.382 21.297 127.893 21.1015 128.322 20.7104C128.75 20.3194 128.965 19.8716 128.965 19.367V16.7936C128.965 16.289 128.75 15.8412 128.322 15.4501C127.893 15.0591 127.382 14.8636 126.789 14.8636ZM126.032 23.1892C124.909 23.1892 123.976 22.7351 123.232 21.8268C122.487 20.906 122.115 19.6571 122.115 18.0803C122.115 16.453 122.468 15.1978 123.175 14.3148C123.894 13.4192 124.846 12.9714 126.032 12.9714C127.104 12.9714 128.05 13.3624 128.87 14.1445C128.883 14.1571 128.896 14.1634 128.908 14.1634C128.921 14.1634 128.927 14.1571 128.927 14.1445V9.88709C128.927 9.59695 129.034 9.34466 129.249 9.13021C129.463 8.91576 129.715 8.80853 130.006 8.80853H130.384C130.674 8.80853 130.927 8.91576 131.141 9.13021C131.355 9.34466 131.463 9.59695 131.463 9.88709V21.9215C131.463 22.2116 131.355 22.4639 131.141 22.6783C130.927 22.8928 130.674 23 130.384 23H130.176C129.873 23 129.615 22.8991 129.4 22.6973C129.198 22.4828 129.091 22.2242 129.078 21.9215L129.06 21.789C129.06 21.7764 129.053 21.7701 129.041 21.7701C129.028 21.7701 129.015 21.7764 129.003 21.789C128.17 22.7225 127.18 23.1892 126.032 23.1892Z" fill="#212121"/>
</svg>
