<svg width="32" height="32" viewBox="0 0 32 32" fill="none" xmlns="http://www.w3.org/2000/svg">
              <path
                d="M24.8332 17.6671C24.7707 17.7578 24.479 18.1434 24.2498 18.3929L24.1248 18.529C22.3748 20.593 18.0207 23.7003 15.8123 24.6983C15.8123 24.7209 14.4998 25.3107 13.8748 25.3333H13.7915C12.8332 25.3333 11.9373 24.7436 11.479 23.791C11.229 23.2693 10.9998 21.7497 10.979 21.727C10.7915 20.3661 10.6665 18.2817 10.6665 15.9887C10.6665 13.5845 10.7915 11.4071 11.0207 10.0689C11.0207 10.0462 11.2498 8.82139 11.3957 8.41313C11.6248 7.82342 12.0415 7.32443 12.5623 7.00689C12.979 6.78008 13.4165 6.66667 13.8748 6.66667C14.354 6.68935 15.2498 7.03184 15.604 7.18834C17.9373 8.18632 22.3957 11.4524 24.104 13.4484C24.3957 13.7659 24.7082 14.1515 24.7915 14.2422C25.1457 14.7412 25.3332 15.3536 25.3332 16.0136C25.3332 16.6011 25.1665 17.1908 24.8332 17.6671Z"
                fill="#212121" />
            </svg>