<svg width="32" height="32" viewBox="0 0 32 32" fill="none" xmlns="http://www.w3.org/2000/svg">
            <path
              d="M17.7766 14.6428C17.8444 14.5732 18.1004 14.2756 18.3389 14.0308C19.737 12.4912 23.3844 9.9712 25.2934 9.202C25.5833 9.0784 26.3163 8.8168 26.7079 8.8C27.0831 8.8 27.4409 8.8864 27.7822 9.0616C28.2077 9.3064 28.5491 9.6916 28.7361 10.1464C28.8565 10.462 29.0436 11.4064 29.0436 11.4232C29.2306 12.4564 29.3335 14.1352 29.3335 15.9904C29.3335 17.758 29.2306 19.3684 29.0775 20.4172C29.0599 20.434 28.8729 21.6076 28.6683 22.0096C28.2931 22.744 27.5601 23.2 26.7757 23.2L26.7079 23.2C26.197 23.182 25.1227 22.726 25.1227 22.7092C23.3165 21.9388 19.7534 19.5424 18.3213 17.95C18.3213 17.95 17.918 17.5408 17.7427 17.2852C17.4691 16.918 17.3335 16.4632 17.3335 16.0084C17.3335 15.5008 17.4866 15.028 17.7766 14.6428Z"
              fill="#212121" />
            <path
              d="M5.77656 14.6428C5.84436 14.5732 6.10038 14.2756 6.33886 14.0308C7.737 12.4912 11.3844 9.9712 13.2934 9.202C13.5833 9.0784 14.3163 8.8168 14.7079 8.8C15.0831 8.8 15.4409 8.8864 15.7822 9.0616C16.2077 9.3064 16.5491 9.6916 16.7361 10.1464C16.8565 10.462 17.0436 11.4064 17.0436 11.4232C17.2306 12.4564 17.3335 14.1352 17.3335 15.9904C17.3335 17.758 17.2306 19.3684 17.0775 20.4172C17.0599 20.434 16.8729 21.6076 16.6683 22.0096C16.2931 22.744 15.5601 23.2 14.7757 23.2L14.7079 23.2C14.197 23.182 13.1227 22.726 13.1227 22.7092C11.3165 21.9388 7.75337 19.5424 6.32132 17.95C6.32132 17.95 5.91801 17.5408 5.74265 17.2852C5.4691 16.918 5.3335 16.4632 5.3335 16.0084C5.3335 15.5008 5.48664 15.028 5.77656 14.6428Z"
              fill="#212121" />
          </svg>